<svg width="154" height="154" viewBox="0 0 154 154" fill="none" xmlns="http://www.w3.org/2000/svg">
                    <circle cx="77" cy="77" r="77" fill="#C4C4C4"/>
                    <path fill-rule="evenodd" clip-rule="evenodd" d="M77.0001 20.5571C63.6448 20.5571 52.8182 31.3837 52.8182 44.739V47.4216C50.3675 47.8328 48.5001 49.9642 48.5001 52.5318V58.5896C48.5001 61.2024 50.4339 63.3636 52.9483 63.7199C53.8357 72.2796 59.1882 79.5132 66.6364 83.0515V91.0635C48.3225 92.1917 33.8182 107.402 33.8182 126H120.182C120.182 107.402 105.678 92.1917 87.3637 91.0635V83.0515C94.8119 79.5132 100.164 72.2796 101.052 63.7199C103.566 63.3636 105.5 61.2024 105.5 58.5896V52.5318C105.5 49.9642 103.633 47.8328 101.182 47.4216V44.739C101.182 31.3837 90.3553 20.5571 77.0001 20.5571Z" fill="#D0C6AC"/>
                    <mask id="mask0" mask-type="alpha" maskUnits="userSpaceOnUse" x="33" y="20" width="88" height="106">
                    <path fill-rule="evenodd" clip-rule="evenodd" d="M77.0001 20.5571C63.6448 20.5571 52.8182 31.3837 52.8182 44.739V47.4216C50.3675 47.8328 48.5001 49.9642 48.5001 52.5318V58.5896C48.5001 61.2024 50.4339 63.3636 52.9483 63.7199C53.8357 72.2796 59.1882 79.5132 66.6364 83.0515V91.0635C48.3225 92.1917 33.8182 107.402 33.8182 126H120.182C120.182 107.402 105.678 92.1917 87.3637 91.0635V83.0515C94.8119 79.5132 100.164 72.2796 101.052 63.7199C103.566 63.3636 105.5 61.2024 105.5 58.5896V52.5318C105.5 49.9642 103.633 47.8328 101.182 47.4216V44.739C101.182 31.3837 90.3553 20.5571 77.0001 20.5571Z" fill="white"/>
                    </mask>
                    <g mask="url(#mask0)">
                    <rect x="20" y="20.5571" width="114" height="105.443" fill="#FFDBB4"/>
                    <path fill-rule="evenodd" clip-rule="evenodd" d="M52.8182 61.1968V64.6539C52.8182 78.0092 63.6448 88.8357 77.0001 88.8357C90.3553 88.8357 101.182 78.0092 101.182 64.6539V61.1968C101.182 74.552 90.3553 85.3786 77.0001 85.3786C63.6448 85.3786 52.8182 74.552 52.8182 61.1968Z" fill="black" fill-opacity="0.1"/>
                    </g>
                    <path fill-rule="evenodd" clip-rule="evenodd" d="M77.216 101.8C85.2053 101.8 91.6819 97.6405 91.6819 92.5092C91.6819 92.2044 91.659 91.903 91.6143 91.6057C107.871 94.618 120.182 108.871 120.182 126H33.8182C33.8182 108.716 46.3541 94.3591 62.83 91.5264C62.7772 91.8493 62.7501 92.1773 62.7501 92.5092C62.7501 97.6405 69.2267 101.8 77.216 101.8Z" fill="#E6E6E6"/>
                    <mask id="mask1" mask-type="alpha" maskUnits="userSpaceOnUse" x="33" y="91" width="88" height="36">
                    <path fill-rule="evenodd" clip-rule="evenodd" d="M77.216 101.8C85.2053 101.8 91.6819 97.6405 91.6819 92.5092C91.6819 92.2044 91.659 91.903 91.6143 91.6057C107.871 94.618 120.182 108.871 120.182 126H33.8182C33.8182 108.716 46.3541 94.3591 62.83 91.5264C62.7772 91.8493 62.7501 92.1773 62.7501 92.5092C62.7501 97.6405 69.2267 101.8 77.216 101.8Z" fill="white"/>
                    </mask>
                    <g mask="url(#mask1)">
                    <rect x="20" y="78.4644" width="114" height="47.5357" fill="#FF5C5C"/>
                    <path fill-rule="evenodd" clip-rule="evenodd" d="M81.4399 112.141C81.3113 113.341 78.9815 113.988 78.1271 113.199C77.7334 112.835 77.7265 112.087 77.6397 111.599C77.4756 110.677 77.3565 109.759 77.3155 108.824C77.2905 108.251 77.1405 107.793 77.7662 107.708C78.1477 107.656 78.5405 107.91 78.8523 108.111C79.909 108.791 81.5859 110.764 81.4399 112.141ZM76.0851 109.612C76.208 110.833 76.6551 112.956 75.6811 113.978C74.8105 114.892 73.0213 113.986 72.7522 112.91C72.4183 111.575 73.7347 109.98 74.5419 109.077C74.7898 108.8 75.3381 108.034 75.7668 108.29C75.9317 108.389 76.0658 109.419 76.0851 109.612ZM76.7069 114.378C76.9861 113.72 79.692 115.683 78.4139 116.616C78.2055 116.769 76.6177 117.25 76.3133 117.024C75.6721 116.547 76.4994 114.878 76.7069 114.378ZM84.9131 111.103C84.7216 104.415 76.1645 102.529 71.5917 106.34C69.8432 107.797 68.8444 109.58 68.7986 111.862C68.7596 113.794 69.0656 115.617 70.5404 116.945C71.1799 117.522 71.6024 117.874 71.9417 118.661C72.2973 119.485 72.4595 120.535 73.1257 121.182C73.4931 121.538 74.028 121.826 74.536 121.596C75.4694 121.173 75.171 119.878 75.4538 119.155C76.3332 121.303 78.5676 121.987 78.9731 119.263C79.4181 120.049 80.5817 121.078 81.434 120.218C81.7848 119.864 81.8376 119.289 81.8972 118.824C82.0029 117.997 81.8191 117.673 82.4821 117.106C84.2264 115.615 84.9753 113.358 84.9131 111.103Z" fill="white"/>
                    </g>
                    <path fill-rule="evenodd" clip-rule="evenodd" d="M70.9546 69.3887C70.9546 72.73 73.6612 75.4387 77 75.4387C80.3389 75.4387 83.0455 72.73 83.0455 69.3887" fill="black" fill-opacity="0.7"/>
                    <path fill-rule="evenodd" clip-rule="evenodd" d="M71.8182 61.1782C71.8182 63.0876 74.1382 64.6354 77.0001 64.6354C79.8619 64.6354 82.1819 63.0876 82.1819 61.1782" fill="black" fill-opacity="0.16"/>
                    <rect width="48.3636" height="19.0143" transform="translate(52.8182 43.8926)" fill="#D08B5B"/>
                    <ellipse cx="65.7728" cy="53.3995" rx="2.59091" ry="2.59286" fill="black" fill-opacity="0.6"/>
                    <path fill-rule="evenodd" clip-rule="evenodd" d="M83.3087 54.6769C83.9897 52.9836 85.701 51.7165 87.7829 51.5708C89.8575 51.4256 91.7225 52.4344 92.6358 54.0068C92.9072 54.4739 92.5968 54.8934 92.2354 54.6239C91.1161 53.7894 89.577 53.327 87.9138 53.4434C86.3025 53.5561 84.8823 54.1905 83.8928 55.1231C83.5311 55.464 83.1096 55.1721 83.3087 54.6769Z" fill="black" fill-opacity="0.6"/>
                    <path d="M59.5677 47.8508C61.2582 45.4702 65.8928 44.1353 69.885 45.1164C70.3482 45.2303 70.8159 44.9468 70.9297 44.4832C71.0434 44.0197 70.7602 43.5516 70.2969 43.4378C65.6607 42.2984 60.2939 43.8441 58.1597 46.8494C57.8834 47.2385 57.9746 47.7781 58.3634 48.0546C58.7522 48.3311 59.2914 48.2399 59.5677 47.8508Z" fill="black" fill-opacity="0.6"/>
                    <path d="M94.4326 47.8508C92.742 45.4702 88.1074 44.1353 84.1152 45.1164C83.652 45.2303 83.1843 44.9468 83.0705 44.4832C82.9568 44.0197 83.2401 43.5516 83.7033 43.4378C88.3396 42.2984 93.7063 43.8441 95.8405 46.8494C96.1168 47.2385 96.0256 47.7781 95.6368 48.0546C95.248 48.3311 94.7089 48.2399 94.4326 47.8508Z" fill="black" fill-opacity="0.6"/>
                    <mask id="mask2" mask-type="alpha" maskUnits="userSpaceOnUse" x="20" y="5" width="114" height="121">
                    <rect x="20" y="5" width="114" height="121" fill="white"/>
                    </mask>
                    <g mask="url(#mask2)">
                    <path fill-rule="evenodd" clip-rule="evenodd" d="M48.5 53.832C53.1891 44.0216 63.4711 40.1778 72.44 36.8248C78.1917 34.6746 83.4033 32.7263 86.2537 29.5358C87.218 30.4117 88.3104 31.2892 89.4596 32.2124C93.8683 35.7538 99.1143 39.9678 101.182 47.35V47.4216C103.336 47.7831 105.04 49.4738 105.42 51.6216C105.419 48.7687 105.015 46.0067 104.262 43.3904C108.187 35.6849 104.574 24.7421 99.8864 20.125C95.7924 16.3144 90.2562 14.8015 86.5204 16.4613C81.5092 8.88126 67.0271 10.7216 58.4319 17.0999C50.8184 22.7522 44.4749 33.0973 46.4232 46.0968C46.0858 47.8908 45.9091 49.7427 45.9091 51.6373V76.5414C45.9091 77.1844 45.9167 77.8271 45.9317 78.4694L45.9091 78.4643C45.9943 91.9621 42.8768 115.119 36.8409 118.654C63.7685 125.912 67.9018 102.17 66.6364 83.2179L66.6364 83.0515C59.0614 79.453 53.6541 72.0323 52.9068 63.2817C50.4126 62.9077 48.5 60.7559 48.5 58.1575V53.832L48.5 53.832ZM87.3637 83.0515C94.9386 79.453 100.346 72.0323 101.093 63.2817C103.587 62.9077 105.5 60.7559 105.5 58.1575V56.7962C105.97 66.5488 108.508 76.1037 112.962 84.8211L113.404 85.6861C117.104 92.9293 117.284 100.704 114.883 107.474C109.061 98.1585 98.9783 91.779 87.3637 91.0635V83.0515Z" fill="#272C2E"/>
                    <mask id="mask3" mask-type="alpha" maskUnits="userSpaceOnUse" x="36" y="11" width="81" height="109">
                    <path fill-rule="evenodd" clip-rule="evenodd" d="M48.5 53.832C53.1891 44.0216 63.4711 40.1778 72.44 36.8248C78.1917 34.6746 83.4033 32.7263 86.2537 29.5358C87.218 30.4117 88.3104 31.2892 89.4596 32.2124C93.8683 35.7538 99.1143 39.9678 101.182 47.35V47.4216C103.336 47.7831 105.04 49.4738 105.42 51.6216C105.419 48.7687 105.015 46.0067 104.262 43.3904C108.187 35.6849 104.574 24.7421 99.8864 20.125C95.7924 16.3144 90.2562 14.8015 86.5204 16.4613C81.5092 8.88126 67.0271 10.7216 58.4319 17.0999C50.8184 22.7522 44.4749 33.0973 46.4232 46.0968C46.0858 47.8908 45.9091 49.7427 45.9091 51.6373V76.5414C45.9091 77.1844 45.9167 77.8271 45.9317 78.4694L45.9091 78.4643C45.9943 91.9621 42.8768 115.119 36.8409 118.654C63.7685 125.912 67.9018 102.17 66.6364 83.2179L66.6364 83.0515C59.0614 79.453 53.6541 72.0323 52.9068 63.2817C50.4126 62.9077 48.5 60.7559 48.5 58.1575V53.832L48.5 53.832ZM87.3637 83.0515C94.9386 79.453 100.346 72.0323 101.093 63.2817C103.587 62.9077 105.5 60.7559 105.5 58.1575V56.7962C105.97 66.5488 108.508 76.1037 112.962 84.8211L113.404 85.6861C117.104 92.9293 117.284 100.704 114.883 107.474C109.061 98.1585 98.9783 91.779 87.3637 91.0635V83.0515Z" fill="white"/>
                    </mask>
                    <g mask="url(#mask3)">
                    <rect x="20" y="5" width="114" height="121" fill="#4A312C"/>
                    </g>
                    <path fill-rule="evenodd" clip-rule="evenodd" d="M72.44 36.8247C63.4711 40.1776 53.1891 44.0215 48.5 53.8319C48.5 53.8319 48.5 53.8319 48.5 53.8319C48.5 53.8319 48.5 53.832 48.5 53.832C53.1891 45.3183 63.4711 41.9825 72.44 39.0727C78.1917 37.2067 83.4033 35.5159 86.2537 32.7471C87.3985 33.6495 88.7236 34.5016 90.1102 35.3933C94.3608 38.1267 99.1887 41.2314 101.166 47.2924C99.087 39.9458 93.8568 35.7444 89.4596 32.2122C88.3103 31.2891 87.218 30.4116 86.2537 29.5356C83.4032 32.7262 78.1916 34.6745 72.44 36.8247Z" fill="black" fill-opacity="0.16"/>
                    <g filter="url(#filter0_d)">
                    <path d="M77.0001 47.3977C72.2339 47.3977 71.5465 43.4719 61.7442 42.9162C51.9484 42.4737 48.8521 45.3832 48.8354 47.3977C48.8513 49.253 48.348 54.0744 54.703 59.7218C61.0819 66.4254 67.6169 64.1522 69.9589 61.9625C72.3085 60.9506 74.988 51.8697 77.0001 51.8792C79.0122 51.8886 81.6917 60.9506 84.0413 61.9625C86.3833 64.1522 92.9183 66.4254 99.2972 59.7218C105.652 54.0744 105.149 49.253 105.165 47.3977C105.148 45.3832 102.052 42.4737 92.256 42.9162C82.4537 43.4719 81.7663 47.3977 77.0001 47.3977Z" fill="#F4F4F4"/>
                    <path d="M72.306 51.879C72.4705 48.5696 66.7296 45.0342 60.5707 45.1567C54.4149 45.2858 53.6136 49.2417 53.5295 50.7586C53.3789 54.2733 57.1427 62.1736 64.0913 61.9623C71.0399 61.7423 72.2109 54.0626 72.306 51.879Z" fill="#2F383B"/>
                    <path d="M81.6942 51.879C81.5297 48.5696 87.2706 45.0342 93.4295 45.1567C99.5854 45.2858 100.387 49.2417 100.471 50.7586C100.621 54.2733 96.8575 62.1736 89.9089 61.9623C82.9604 61.7423 81.7893 54.0626 81.6942 51.879Z" fill="#2F383B"/>
                    </g>
                    </g>
                    <defs>
                    <filter id="filter0_d" x="48.8314" y="42.8711" width="56.3374" height="23.306" filterUnits="userSpaceOnUse" color-interpolation-filters="sRGB">
                    <feFlood flood-opacity="0" result="BackgroundImageFix"/>
                    <feColorMatrix in="SourceAlpha" type="matrix" values="0 0 0 0 0 0 0 0 0 0 0 0 0 0 0 0 0 0 127 0"/>
                    <feOffset dy="2"/>
                    <feColorMatrix type="matrix" values="0 0 0 0 0 0 0 0 0 0 0 0 0 0 0 0 0 0 0.16 0"/>
                    <feBlend mode="normal" in2="BackgroundImageFix" result="effect1_dropShadow"/>
                    <feBlend mode="normal" in="SourceGraphic" in2="effect1_dropShadow" result="shape"/>
                    </filter>
                    </defs>
                </svg>